<svg width="12" height="16" viewBox="0 0 12 16" fill="none" xmlns="http://www.w3.org/2000/svg">
<path d="M10.8004 16C10.66 16 10.522 15.963 10.4004 15.8928L6.00039 13.3552L1.60039 15.8928C1.47878 15.963 1.34082 16 1.2004 16C1.05997 16 0.922014 15.963 0.800399 15.8928C0.678785 15.8226 0.577794 15.7216 0.507578 15.6C0.437362 15.4784 0.400394 15.3404 0.400391 15.2V2.4C0.401026 1.76368 0.654086 1.1536 1.10404 0.703646C1.55399 0.253696 2.16407 0.000635372 2.80039 0H9.20039C9.83672 0.000635372 10.4468 0.253696 10.8967 0.703646C11.3467 1.1536 11.5998 1.76368 11.6004 2.4V15.2C11.6004 15.4122 11.5161 15.6157 11.3661 15.7657C11.216 15.9157 11.0126 16 10.8004 16Z" fill="white"/>
</svg>
