<svg width="30" height="24" viewBox="0 0 30 24" fill="none" xmlns="http://www.w3.org/2000/svg">
<g id="Frame 31">
<path id="youtube" fill-rule="evenodd" clip-rule="evenodd" d="M24.7277 3.68454C25.8259 3.99832 26.6104 4.78277 26.9241 5.88101C27.5517 7.92058 27.5517 11.9997 27.5517 11.9997C27.5517 11.9997 27.5517 16.0789 27.081 18.1185C26.7673 19.2167 25.9828 20.0011 24.8845 20.3149C22.845 20.7856 15.0005 20.7856 15.0005 20.7856C15.0005 20.7856 6.99904 20.7856 5.11635 20.3149C4.01812 20.0011 3.23368 19.2167 2.91989 18.1185C2.44922 16.0789 2.44922 11.9997 2.44922 11.9997C2.44922 11.9997 2.44921 7.92058 2.76299 5.88101C3.07678 4.78277 3.86124 3.99832 4.95948 3.68454C6.99905 3.21387 14.8436 3.21387 14.8436 3.21387C14.8436 3.21387 22.845 3.21387 24.7277 3.68454ZM12.4902 8.92363C12.4902 8.6165 12.822 8.42396 13.0887 8.57633L18.4718 11.6524C18.7406 11.806 18.7406 12.1935 18.4718 12.347L13.0887 15.4231C12.822 15.5755 12.4902 15.383 12.4902 15.0758V8.92363Z" fill="#BABABA"/>
</g>
</svg>
