<svg width="30" height="24" viewBox="0 0 30 24" fill="none" xmlns="http://www.w3.org/2000/svg">
<g id="Frame 30">
<path id="Vector" d="M12.2139 15.7617C12.2139 16.8432 11.6505 18.613 10.317 18.613C8.9834 18.613 8.41999 16.8432 8.41999 15.7617C8.41999 14.6801 8.9834 12.9104 10.317 12.9104C11.6505 12.9104 12.2139 14.6801 12.2139 15.7617ZM27.4051 13.1484C27.4051 14.7992 27.2397 16.5483 26.5005 18.0645C24.5416 22.0284 19.1556 21.9352 15.2997 21.9352C11.3817 21.9352 5.67535 22.0749 3.63883 18.0645C2.88418 16.5638 2.59473 14.7992 2.59473 13.1484C2.59473 10.9802 3.31319 8.93093 4.73979 7.26982C4.47101 6.4522 4.34179 5.59318 4.34179 4.74452C4.34179 3.63193 4.59506 3.07305 5.09644 2.06396C7.43792 2.06396 8.93688 2.5297 10.7201 3.9269C12.2191 3.56983 13.7594 3.40941 15.3049 3.40941C16.7005 3.40941 18.1064 3.55948 19.4606 3.8855C21.218 2.50382 22.717 2.06396 25.0326 2.06396C25.5391 3.07305 25.7872 3.63193 25.7872 4.74452C25.7872 5.59318 25.6529 6.43668 25.3892 7.23877C26.8107 8.91541 27.4051 10.9802 27.4051 13.1484ZM24.0815 15.7617C24.0815 13.4899 22.7015 11.4873 20.2824 11.4873C19.3055 11.4873 18.37 11.6632 17.3879 11.7978C16.6178 11.9168 15.8476 11.9634 15.0568 11.9634C14.2711 11.9634 13.5009 11.9168 12.7256 11.7978C11.7591 11.6632 10.8132 11.4873 9.83108 11.4873C7.41207 11.4873 6.032 13.4899 6.032 15.7617C6.032 20.3052 10.1877 21.0038 13.8059 21.0038H16.2973C19.931 21.0038 24.0815 20.3103 24.0815 15.7617ZM19.8121 12.9104C18.4785 12.9104 17.9151 14.6801 17.9151 15.7617C17.9151 16.8432 18.4785 18.613 19.8121 18.613C21.1456 18.613 21.709 16.8432 21.709 15.7617C21.709 14.6801 21.1456 12.9104 19.8121 12.9104Z" fill="#BABABA"/>
</g>
</svg>
