<svg width="30" height="24" viewBox="0 0 30 24" fill="none" xmlns="http://www.w3.org/2000/svg">
<g id="Frame 33">
<g id="GT">
<path d="M8.70851 13.4868H16.6451V21.1817H13.3738L12.9835 17.8918C12.6117 19.069 11.9488 19.9426 10.9947 20.5126C10.0406 21.0825 8.8758 21.3675 7.50038 21.3675C6.24887 21.3675 5.13367 21.0887 4.15477 20.5311C3.18826 19.9735 2.4262 19.1743 1.8686 18.1335C1.32339 17.0926 1.05078 15.8783 1.05078 14.4905C1.05078 12.2724 1.71371 10.5191 3.03956 9.23041C4.36542 7.94173 6.42854 7.29739 9.22894 7.29739C10.8274 7.29739 12.2338 7.5576 13.4481 8.07803C14.6749 8.59846 15.7157 9.40388 16.5707 10.4943C16.0131 10.7793 14.9227 11.3493 13.2994 12.2043L12.8348 12.4645C12.3515 11.9812 11.7877 11.6219 11.1434 11.3865C10.499 11.1386 9.81752 11.0147 9.09883 11.0147C7.90928 11.0147 7.02332 11.3307 6.44093 11.9627C5.85855 12.5822 5.56736 13.3505 5.56736 14.2674C5.56736 15.2587 5.87714 16.0579 6.49669 16.6651C7.12864 17.2723 8.08896 17.5758 9.37764 17.5758C9.93524 17.5758 10.4743 17.4953 10.9947 17.3342C11.5275 17.1731 11.9736 16.8943 12.3329 16.4978H8.70851V13.4868Z" fill="#BABABA"/>
<path d="M28.9495 6.53627C27.0041 6.47432 25.1144 6.43714 23.2805 6.42475V16.127H18.6338V6.42475C16.7875 6.43714 14.9041 6.47432 12.9835 6.53627V2.63306H28.9495V6.53627Z" fill="#BABABA"/>
</g>
</g>
</svg>
