<svg width="16" height="16" viewBox="0 0 16 16" fill="none" xmlns="http://www.w3.org/2000/svg">
<path d="M12.8004 16C12.66 16 12.522 15.963 12.4004 15.8928L8.00039 13.3552L3.60039 15.8928C3.47878 15.963 3.34082 16 3.2004 16C3.05997 16 2.92201 15.963 2.8004 15.8928C2.67878 15.8226 2.57779 15.7216 2.50758 15.6C2.43736 15.4784 2.40039 15.3404 2.40039 15.2V2.4C2.40103 1.76368 2.65409 1.1536 3.10404 0.703646C3.55399 0.253696 4.16407 0.000635372 4.80039 0H11.2004C11.8367 0.000635372 12.4468 0.253696 12.8967 0.703646C13.3467 1.1536 13.5998 1.76368 13.6004 2.4V15.2C13.6004 15.4122 13.5161 15.6157 13.3661 15.7657C13.216 15.9157 13.0126 16 12.8004 16Z" fill="white"/>
</svg>
