<svg width="41" height="40" viewBox="0 0 41 40" fill="none" xmlns="http://www.w3.org/2000/svg">
<rect x="0.547852" width="40" height="40" rx="4" fill="#2B788B"/>
<path d="M27.7324 11.6192C27.7042 11.45 27.64 11.2888 27.5442 11.1465C27.4485 11.0042 27.3233 10.884 27.1771 10.7942C27.031 10.7044 26.8673 10.6469 26.6971 10.6257C26.5269 10.6045 26.3541 10.62 26.1904 10.6712L17.7904 13.2956C17.5461 13.3719 17.3326 13.5242 17.1811 13.7303C17.0295 13.9365 16.9478 14.1857 16.948 14.4416V24.2C16.4073 23.7945 15.7456 23.5835 15.07 23.601C14.3944 23.6186 13.7446 23.8637 13.2257 24.2967C12.7069 24.7298 12.3494 25.3253 12.2113 25.9868C12.0732 26.6484 12.1624 27.3372 12.4647 27.9416C12.7669 28.5461 13.2644 29.0308 13.8765 29.3172C14.4886 29.6037 15.1795 29.675 15.8372 29.5197C16.4949 29.3645 17.081 28.9917 17.5004 28.4618C17.9198 27.9318 18.148 27.2758 18.148 26.6V18.0416L26.548 15.416V18.8276C26.9596 18.8636 27.3616 18.9392 27.748 19.0484V11.816C27.748 11.7488 27.742 11.684 27.7324 11.6192ZM31.348 25.4C31.348 26.8322 30.779 28.2057 29.7663 29.2184C28.7536 30.2311 27.3801 30.8 25.948 30.8C24.5158 30.8 23.1423 30.2311 22.1296 29.2184C21.1169 28.2057 20.548 26.8322 20.548 25.4C20.548 23.9678 21.1169 22.5943 22.1296 21.5816C23.1423 20.5689 24.5158 20 25.948 20C27.3801 20 28.7536 20.5689 29.7663 21.5816C30.779 22.5943 31.348 23.9678 31.348 25.4ZM28.6324 24.878L25.0396 22.898C24.9483 22.8475 24.8454 22.8217 24.741 22.8231C24.6367 22.8245 24.5346 22.8531 24.4447 22.906C24.3548 22.959 24.2802 23.0345 24.2284 23.125C24.1766 23.2156 24.1493 23.3181 24.1492 23.4224V27.3824C24.1491 27.4868 24.1762 27.5895 24.228 27.6802C24.2797 27.7709 24.3542 27.8466 24.4441 27.8997C24.5341 27.9527 24.6363 27.9814 24.7407 27.9829C24.8452 27.9844 24.9482 27.9585 25.0396 27.908L28.6324 25.928C28.7261 25.8761 28.8043 25.8001 28.8587 25.7077C28.9132 25.6154 28.9419 25.5102 28.9419 25.403C28.9419 25.2958 28.9132 25.1906 28.8587 25.0983C28.8043 25.0059 28.7261 24.9299 28.6324 24.878Z" fill="white"/>
</svg>
