<svg width="16" height="16" viewBox="0 0 16 16" fill="none" xmlns="http://www.w3.org/2000/svg">
<path d="M14.7778 0.145004C14.7585 0.101615 14.7269 0.0648056 14.687 0.03906C14.6472 0.0133145 14.6007 -0.000255464 14.5532 3.64241e-06H7.59971C7.55795 7.33269e-05 7.51687 0.0106378 7.48024 0.0307292C7.44361 0.0508207 7.4126 0.0797969 7.39005 0.115004L2.04389 8.615C2.01815 8.65201 2.00311 8.69542 2.00043 8.74045C1.99775 8.78547 2.00753 8.83037 2.0287 8.87018C2.04986 8.90999 2.08159 8.94318 2.12038 8.96609C2.15917 8.98899 2.20353 9.00073 2.24855 9H6.07722L2.69781 15.625C2.67841 15.6644 2.66929 15.7081 2.6713 15.752C2.67332 15.7958 2.6864 15.8385 2.70933 15.8759C2.73226 15.9134 2.76429 15.9444 2.80243 15.9661C2.84057 15.9878 2.88357 15.9995 2.92743 16H4.42496C4.4596 16.0002 4.49391 15.9932 4.52571 15.9795C4.55751 15.9657 4.58609 15.9454 4.60965 15.92L13.3802 6.425C13.415 6.38945 13.4384 6.3443 13.4474 6.29533C13.4565 6.24635 13.4507 6.1958 13.4308 6.15013C13.411 6.10447 13.378 6.06579 13.3361 6.03904C13.2941 6.01229 13.2452 5.9987 13.1955 6H9.83102L14.7379 0.410003C14.7695 0.374491 14.7902 0.330518 14.7973 0.283458C14.8044 0.236397 14.7976 0.188286 14.7778 0.145004Z" fill="white"/>
</svg>
