<svg width="24" height="24" viewBox="0 0 24 24" fill="none" xmlns="http://www.w3.org/2000/svg">
<path d="M19.184 3.6192C19.1558 3.44999 19.0917 3.2888 18.9959 3.14648C18.9001 3.00416 18.7749 2.88403 18.6288 2.79419C18.4827 2.70435 18.319 2.64688 18.1488 2.62567C17.9785 2.60445 17.8057 2.61998 17.642 2.6712L9.24201 5.2956C8.99776 5.37185 8.78428 5.52418 8.63273 5.73035C8.48118 5.93651 8.3995 6.18573 8.39961 6.4416V16.2C7.85897 15.7945 7.19725 15.5835 6.52167 15.601C5.84609 15.6186 5.19622 15.8637 4.67737 16.2967C4.15852 16.7298 3.80107 17.3253 3.66294 17.9868C3.52482 18.6484 3.6141 19.3372 3.91633 19.9416C4.21856 20.5461 4.71603 21.0308 5.32814 21.3172C5.94025 21.6037 6.63114 21.675 7.28887 21.5197C7.9466 21.3645 8.53264 20.9917 8.95203 20.4618C9.37143 19.9318 9.59961 19.2758 9.59961 18.6V10.0416L17.9996 7.416V10.8276C18.4112 10.8636 18.8132 10.9392 19.1996 11.0484V3.816C19.1996 3.7488 19.1936 3.684 19.184 3.6192ZM22.7996 17.4C22.7996 18.8322 22.2307 20.2057 21.218 21.2184C20.2053 22.2311 18.8318 22.8 17.3996 22.8C15.9674 22.8 14.5939 22.2311 13.5812 21.2184C12.5685 20.2057 11.9996 18.8322 11.9996 17.4C11.9996 15.9678 12.5685 14.5943 13.5812 13.5816C14.5939 12.5689 15.9674 12 17.3996 12C18.8318 12 20.2053 12.5689 21.218 13.5816C22.2307 14.5943 22.7996 15.9678 22.7996 17.4ZM20.084 16.878L16.4912 14.898C16.3999 14.8475 16.297 14.8217 16.1927 14.8231C16.0884 14.8245 15.9862 14.8531 15.8963 14.906C15.8064 14.959 15.7319 15.0345 15.6801 15.125C15.6282 15.2156 15.6009 15.3181 15.6008 15.4224V19.3824C15.6007 19.4868 15.6279 19.5895 15.6796 19.6802C15.7314 19.7709 15.8059 19.8466 15.8958 19.8997C15.9857 19.9527 16.088 19.9814 16.1924 19.9829C16.2968 19.9844 16.3998 19.9585 16.4912 19.908L20.084 17.928C20.1778 17.8761 20.256 17.8001 20.3104 17.7077C20.3648 17.6154 20.3935 17.5102 20.3935 17.403C20.3935 17.2958 20.3648 17.1906 20.3104 17.0983C20.256 17.0059 20.1778 16.9299 20.084 16.878Z" fill="#BABABA"/>
</svg>
