<svg width="31" height="24" viewBox="0 0 31 24" fill="none" xmlns="http://www.w3.org/2000/svg">
<path fill-rule="evenodd" clip-rule="evenodd" d="M24.7748 3.68472C25.8731 3.9985 26.6575 4.78296 26.9713 5.88119C27.5988 7.92076 27.5988 11.9999 27.5988 11.9999C27.5988 11.9999 27.5989 16.0791 27.1282 18.1186C26.8144 19.2169 26.0299 20.0013 24.9317 20.3151C22.8921 20.7858 15.0476 20.7858 15.0476 20.7858C15.0476 20.7858 7.04619 20.7858 5.1635 20.3151C4.06527 20.0013 3.28083 19.2169 2.96704 18.1186C2.49637 16.0791 2.49637 11.9999 2.49637 11.9999C2.49637 11.9999 2.49636 7.92076 2.81014 5.88119C3.12393 4.78296 3.90839 3.9985 5.00663 3.68472C7.0462 3.21405 14.8907 3.21405 14.8907 3.21405C14.8907 3.21405 22.8921 3.21405 24.7748 3.68472ZM12.5373 8.92382C12.5373 8.61669 12.8691 8.42414 13.1358 8.57652L18.519 11.6526C18.7877 11.8062 18.7877 12.1937 18.519 12.3472L13.1358 15.4233C12.8691 15.5757 12.5373 15.3831 12.5373 15.076V8.92382Z" fill="#BABABA"/>
</svg>
