<svg width="31" height="24" viewBox="0 0 31 24" fill="none" xmlns="http://www.w3.org/2000/svg">
<path d="M12.2615 15.7617C12.2615 16.8432 11.6981 18.613 10.3645 18.613C9.03094 18.613 8.46754 16.8432 8.46754 15.7617C8.46754 14.6801 9.03094 12.9103 10.3645 12.9103C11.6981 12.9103 12.2615 14.6801 12.2615 15.7617V15.7617ZM27.4526 13.1484C27.4526 14.7991 27.2872 16.5482 26.5481 18.0644C24.5891 22.0283 19.2032 21.9352 15.3472 21.9352C11.4293 21.9352 5.72289 22.0749 3.68638 18.0644C2.93173 16.5637 2.64227 14.7991 2.64227 13.1484C2.64227 10.9801 3.36074 8.9309 4.78734 7.26979C4.51856 6.45217 4.38934 5.59315 4.38934 4.74448C4.38934 3.6319 4.64261 3.07302 5.14398 2.06393C7.48546 2.06393 8.98442 2.52967 10.7677 3.92687C12.2666 3.5698 13.8069 3.40938 15.3524 3.40938C16.748 3.40938 18.1539 3.55945 19.5082 3.88547C21.2656 2.50379 22.7645 2.06393 25.0801 2.06393C25.5867 3.07302 25.8348 3.6319 25.8348 4.74448C25.8348 5.59315 25.7004 6.43665 25.4368 7.23874C26.8582 8.91538 27.4526 10.9801 27.4526 13.1484V13.1484ZM24.1291 15.7617C24.1291 13.4899 22.749 11.4873 20.33 11.4873C19.3531 11.4873 18.4175 11.6632 17.4355 11.7977C16.6653 11.9168 15.8951 11.9633 15.1043 11.9633C14.3187 11.9633 13.5485 11.9168 12.7732 11.7977C11.8066 11.6632 10.8607 11.4873 9.87863 11.4873C7.45962 11.4873 6.07954 13.4899 6.07954 15.7617C6.07954 20.3051 10.2353 21.0037 13.8535 21.0037H16.3448C19.9785 21.0037 24.1291 20.3103 24.1291 15.7617V15.7617ZM19.8596 12.9103C18.5261 12.9103 17.9627 14.6801 17.9627 15.7617C17.9627 16.8432 18.5261 18.613 19.8596 18.613C21.1932 18.613 21.7566 16.8432 21.7566 15.7617C21.7566 14.6801 21.1932 12.9103 19.8596 12.9103Z" fill="#BABABA"/>
</svg>
