<svg width="31" height="24" viewBox="0 0 31 24" fill="none" xmlns="http://www.w3.org/2000/svg">
<path d="M8.756 13.4866H16.6925V21.1815H13.4213L13.0309 17.8917C12.6592 19.0689 11.9963 19.9424 11.0422 20.5124C10.088 21.0824 8.92328 21.3674 7.54786 21.3674C6.29636 21.3674 5.18115 21.0886 4.20225 20.531C3.23574 19.9734 2.47368 19.1742 1.91608 18.1333C1.37087 17.0925 1.09827 15.8781 1.09827 14.4903C1.09827 12.2723 1.76119 10.519 3.08705 9.23028C4.4129 7.9416 6.47603 7.29726 9.27643 7.29726C10.8749 7.29726 12.2813 7.55748 13.4956 8.07791C14.7223 8.59833 15.7632 9.40376 16.6182 10.4942C16.0606 10.7792 14.9702 11.3492 13.3469 12.2042L12.8823 12.4644C12.399 11.9811 11.8352 11.6218 11.1909 11.3863C10.5465 11.1385 9.86501 11.0146 9.14632 11.0146C7.95677 11.0146 7.0708 11.3306 6.48842 11.9625C5.90603 12.5821 5.61484 13.3503 5.61484 14.2673C5.61484 15.2586 5.92462 16.0578 6.54418 16.665C7.17613 17.2721 8.13644 17.5757 9.42512 17.5757C9.98273 17.5757 10.5217 17.4952 11.0422 17.3341C11.575 17.173 12.0211 16.8942 12.3804 16.4977H8.756V13.4866Z" fill="#BABABA"/>
<path d="M28.9969 6.53615C27.0515 6.47419 25.1619 6.43702 23.328 6.42463V16.1269H18.6813V6.42463C16.835 6.43702 14.9516 6.47419 13.0309 6.53615V2.63294H28.9969V6.53615Z" fill="#BABABA"/>
</svg>
