<svg width="16" height="16" viewBox="0 0 16 16" fill="none" xmlns="http://www.w3.org/2000/svg">
<path d="M15.4829 5.73778L10.6864 5.03982L8.54222 0.687521C8.48365 0.568358 8.38731 0.471892 8.26829 0.413256C7.96981 0.26572 7.6071 0.388667 7.45786 0.687521L5.3137 5.03982L0.517213 5.73778C0.384974 5.75669 0.26407 5.81911 0.171503 5.91369C0.0595945 6.02885 -0.0020722 6.18379 5.31712e-05 6.34446C0.00217854 6.50512 0.0679221 6.65837 0.182838 6.77053L3.65316 10.1582L2.83328 14.9417C2.81405 15.053 2.82635 15.1674 2.86878 15.2721C2.91121 15.3767 2.98207 15.4674 3.07333 15.5337C3.16459 15.6001 3.27259 15.6395 3.38509 15.6475C3.4976 15.6556 3.6101 15.6319 3.70983 15.5792L8.00004 13.3207L12.2902 15.5792C12.4074 15.6416 12.5434 15.6624 12.6737 15.6397C13.0024 15.5829 13.2235 15.2708 13.1668 14.9417L12.3469 10.1582L15.8172 6.77053C15.9117 6.67784 15.974 6.55679 15.9929 6.42439C16.0439 6.09338 15.8135 5.78696 15.4829 5.73778Z" fill="white"/>
</svg>
