<svg width="353" height="66" viewBox="0 0 353 66" fill="none" xmlns="http://www.w3.org/2000/svg">
<path d="M23.9585 5.66031C23.9221 5.57896 23.863 5.50994 23.7882 5.46167C23.7134 5.41339 23.6262 5.38795 23.5373 5.38843H10.4995C10.4212 5.38857 10.3441 5.40837 10.2755 5.44605C10.2068 5.48372 10.1486 5.53805 10.1064 5.60406L0.0822939 21.5415C0.0340351 21.6109 0.00583936 21.6923 0.000813382 21.7768C-0.00421259 21.8612 0.0141262 21.9454 0.0538094 22.02C0.0934926 22.0947 0.15298 22.1569 0.225716 22.1998C0.298451 22.2428 0.381612 22.2648 0.466035 22.2634H7.64479L1.30839 34.6853C1.27201 34.7592 1.25491 34.8411 1.25869 34.9234C1.26247 35.0056 1.287 35.0856 1.33 35.1558C1.37299 35.2261 1.43305 35.2842 1.50456 35.3249C1.57607 35.3656 1.6567 35.3874 1.73893 35.3884H4.54679C4.61175 35.3889 4.67608 35.3757 4.7357 35.3499C4.79532 35.3241 4.84892 35.2861 4.89309 35.2384L21.3378 17.4353C21.4031 17.3687 21.447 17.284 21.4639 17.1922C21.4809 17.1003 21.47 17.0055 21.4328 16.9199C21.3956 16.8343 21.3337 16.7618 21.2551 16.7116C21.1765 16.6615 21.0847 16.636 20.9915 16.6384H14.6832L23.8836 6.15718C23.9429 6.0906 23.9816 6.00815 23.9949 5.91991C24.0082 5.83167 23.9955 5.74146 23.9585 5.66031Z" fill="#2B788B"/>
<path d="M55.28 17.5484C57.3867 17.5484 59.3067 17.9884 61.04 18.8684C62.7733 19.7218 64.1333 20.8818 65.12 22.3484C66.1333 23.8151 66.64 25.3884 66.64 27.0684C66.64 29.2551 65.9467 31.1618 64.56 32.7884C63.1733 34.4151 61.2933 35.6551 58.92 36.5084C56.5467 37.3618 53.8933 37.7884 50.96 37.7884C47.9733 37.7884 45.3067 37.2018 42.96 36.0284C40.64 34.8284 38.8267 33.1751 37.52 31.0684C36.24 28.9618 35.6 26.5618 35.6 23.8684C35.6 18.5084 37.08 14.5218 40.04 11.9084C43.0267 9.26843 47.04 7.94843 52.08 7.94843C58.2133 7.94843 63.0533 9.49509 66.6 12.5884C65 14.2951 63.5333 16.1751 62.2 18.2284C61.1333 17.4284 59.6267 16.7884 57.68 16.3084C55.76 15.8018 54.04 15.5484 52.52 15.5484C50.2 15.5484 48.2533 16.1351 46.68 17.3084C45.1067 18.4551 44.1467 20.1084 43.8 22.2684C43.7733 22.4018 43.76 22.5884 43.76 22.8284C45.04 20.9618 46.72 19.6151 48.8 18.7884C50.9067 17.9618 53.0667 17.5484 55.28 17.5484ZM51.36 30.1884C52.3733 30.1884 53.32 30.0551 54.2 29.7884C55.08 29.4951 55.7733 29.1084 56.28 28.6284C56.7867 28.1218 57.04 27.5884 57.04 27.0284C57.04 26.1484 56.48 25.4018 55.36 24.7884C54.2667 24.1484 52.9333 23.8284 51.36 23.8284C49.7867 23.8284 48.44 24.1484 47.32 24.7884C46.2267 25.4018 45.68 26.1484 45.68 27.0284C45.68 27.5884 45.9333 28.1218 46.44 28.6284C46.9467 29.1084 47.64 29.4951 48.52 29.7884C49.4 30.0551 50.3467 30.1884 51.36 30.1884ZM85.8178 37.7884C80.0845 37.7884 75.8578 36.4684 73.1378 33.8284C70.4178 31.1884 69.0578 27.5218 69.0578 22.8284C69.0578 18.1618 70.4178 14.5218 73.1378 11.9084C75.8845 9.26843 80.1111 7.94843 85.8178 7.94843C91.5245 7.94843 95.7378 9.26843 98.4578 11.9084C101.178 14.5218 102.538 18.1618 102.538 22.8284C102.538 27.5218 101.178 31.1884 98.4578 33.8284C95.7378 36.4684 91.5245 37.7884 85.8178 37.7884ZM85.8578 30.7884C88.3111 30.7884 90.0978 30.0418 91.2178 28.5484C92.3378 27.0284 92.8978 25.1218 92.8978 22.8284C92.8978 20.5618 92.3378 18.6818 91.2178 17.1884C90.0978 15.6684 88.3111 14.9084 85.8578 14.9084C83.3245 14.9084 81.4845 15.6684 80.3378 17.1884C79.2178 18.6818 78.6578 20.5618 78.6578 22.8284C78.6578 25.0951 79.2178 26.9884 80.3378 28.5084C81.4845 30.0284 83.3245 30.7884 85.8578 30.7884ZM121.698 37.7884C115.964 37.7884 111.738 36.4684 109.018 33.8284C106.298 31.1884 104.938 27.5218 104.938 22.8284C104.938 18.1618 106.298 14.5218 109.018 11.9084C111.764 9.26843 115.991 7.94843 121.698 7.94843C127.404 7.94843 131.618 9.26843 134.338 11.9084C137.058 14.5218 138.418 18.1618 138.418 22.8284C138.418 27.5218 137.058 31.1884 134.338 33.8284C131.618 36.4684 127.404 37.7884 121.698 37.7884ZM121.738 30.7884C124.191 30.7884 125.978 30.0418 127.098 28.5484C128.218 27.0284 128.778 25.1218 128.778 22.8284C128.778 20.5618 128.218 18.6818 127.098 17.1884C125.978 15.6684 124.191 14.9084 121.738 14.9084C119.204 14.9084 117.364 15.6684 116.218 17.1884C115.098 18.6818 114.538 20.5618 114.538 22.8284C114.538 25.0951 115.098 26.9884 116.218 28.5084C117.364 30.0284 119.204 30.7884 121.738 30.7884Z" fill="black"/>
<path d="M154.577 19.8684H161.697V27.6684H154.577V34.8284H146.777V27.6684H139.617V19.8684H146.777V12.7084H154.577V19.8684Z" fill="#2B788B"/>
<path d="M31.612 49.1884C32.5827 49.1884 33.4253 49.3484 34.14 49.6684C34.8653 49.9884 35.42 50.4471 35.804 51.0444C36.188 51.6418 36.38 52.3511 36.38 53.1724C36.38 53.9831 36.188 54.6924 35.804 55.3004C35.42 55.8978 34.8653 56.3564 34.14 56.6764C33.4253 56.9964 32.5827 57.1564 31.612 57.1564H29.084V60.3884H27.004V49.1884H31.612ZM31.516 55.3964C32.4227 55.3964 33.1107 55.2044 33.58 54.8204C34.0493 54.4364 34.284 53.8871 34.284 53.1724C34.284 52.4578 34.0493 51.9084 33.58 51.5244C33.1107 51.1404 32.4227 50.9484 31.516 50.9484H29.084V55.3964H31.516ZM41.4339 60.5004C40.5699 60.5004 39.7912 60.3138 39.0979 59.9404C38.4045 59.5671 37.8605 59.0498 37.4659 58.3884C37.0819 57.7164 36.8899 56.9591 36.8899 56.1164C36.8899 55.2738 37.0819 54.5218 37.4659 53.8604C37.8605 53.1991 38.4045 52.6818 39.0979 52.3084C39.7912 51.9351 40.5699 51.7484 41.4339 51.7484C42.3085 51.7484 43.0925 51.9351 43.7859 52.3084C44.4792 52.6818 45.0179 53.1991 45.4019 53.8604C45.7965 54.5218 45.9939 55.2738 45.9939 56.1164C45.9939 56.9591 45.7965 57.7164 45.4019 58.3884C45.0179 59.0498 44.4792 59.5671 43.7859 59.9404C43.0925 60.3138 42.3085 60.5004 41.4339 60.5004ZM41.4339 58.7884C42.1699 58.7884 42.7779 58.5431 43.2579 58.0524C43.7379 57.5618 43.9779 56.9164 43.9779 56.1164C43.9779 55.3164 43.7379 54.6711 43.2579 54.1804C42.7779 53.6898 42.1699 53.4444 41.4339 53.4444C40.6979 53.4444 40.0899 53.6898 39.6099 54.1804C39.1405 54.6711 38.9059 55.3164 38.9059 56.1164C38.9059 56.9164 39.1405 57.5618 39.6099 58.0524C40.0899 58.5431 40.6979 58.7884 41.4339 58.7884ZM52.0024 51.7484C52.8344 51.7484 53.5757 51.9298 54.2264 52.2924C54.8877 52.6551 55.405 53.1671 55.7784 53.8284C56.1517 54.4898 56.3384 55.2524 56.3384 56.1164C56.3384 56.9804 56.1517 57.7484 55.7784 58.4204C55.405 59.0818 54.8877 59.5938 54.2264 59.9564C53.5757 60.3191 52.8344 60.5004 52.0024 60.5004C50.8504 60.5004 49.9384 60.1164 49.2664 59.3484V63.4924H47.2664V51.8444H49.1704V52.9644C49.501 52.5591 49.9064 52.2551 50.3864 52.0524C50.877 51.8498 51.4157 51.7484 52.0024 51.7484ZM51.7784 58.7884C52.5144 58.7884 53.117 58.5431 53.5864 58.0524C54.0664 57.5618 54.3064 56.9164 54.3064 56.1164C54.3064 55.3164 54.0664 54.6711 53.5864 54.1804C53.117 53.6898 52.5144 53.4444 51.7784 53.4444C51.2984 53.4444 50.8664 53.5564 50.4824 53.7804C50.0984 53.9938 49.7944 54.3031 49.5704 54.7084C49.3464 55.1138 49.2344 55.5831 49.2344 56.1164C49.2344 56.6498 49.3464 57.1191 49.5704 57.5244C49.7944 57.9298 50.0984 58.2444 50.4824 58.4684C50.8664 58.6818 51.2984 58.7884 51.7784 58.7884ZM65.8671 51.8444V60.3884H63.9631V59.3004C63.6431 59.6844 63.2431 59.9831 62.7631 60.1964C62.2831 60.3991 61.7658 60.5004 61.2111 60.5004C60.0698 60.5004 59.1685 60.1858 58.5071 59.5564C57.8565 58.9164 57.5311 57.9724 57.5311 56.7244V51.8444H59.5311V56.4524C59.5311 57.2204 59.7018 57.7964 60.0431 58.1804C60.3951 58.5538 60.8911 58.7404 61.5311 58.7404C62.2458 58.7404 62.8111 58.5218 63.2271 58.0844C63.6538 57.6364 63.8671 56.9964 63.8671 56.1644V51.8444H65.8671ZM67.8457 48.5164H69.8457V60.3884H67.8457V48.5164ZM75.0947 51.7484C76.3534 51.7484 77.3134 52.0524 77.9747 52.6604C78.6467 53.2578 78.9827 54.1644 78.9827 55.3804V60.3884H77.0947V59.3484C76.8494 59.7218 76.4974 60.0098 76.0387 60.2124C75.5907 60.4044 75.0467 60.5004 74.4067 60.5004C73.7667 60.5004 73.2067 60.3938 72.7267 60.1804C72.2467 59.9564 71.8734 59.6524 71.6067 59.2684C71.3507 58.8738 71.2227 58.4311 71.2227 57.9404C71.2227 57.1724 71.5054 56.5591 72.0707 56.1004C72.6467 55.6311 73.5481 55.3964 74.7747 55.3964H76.9827V55.2684C76.9827 54.6711 76.8014 54.2124 76.4387 53.8924C76.0867 53.5724 75.5587 53.4124 74.8547 53.4124C74.3747 53.4124 73.9001 53.4871 73.4307 53.6364C72.9721 53.7858 72.5827 53.9938 72.2627 54.2604L71.4787 52.8044C71.9267 52.4631 72.4654 52.2018 73.0947 52.0204C73.7241 51.8391 74.3907 51.7484 75.0947 51.7484ZM74.8227 59.0444C75.3241 59.0444 75.7667 58.9324 76.1507 58.7084C76.5454 58.4738 76.8227 58.1431 76.9827 57.7164V56.7244H74.9187C73.7667 56.7244 73.1907 57.1031 73.1907 57.8604C73.1907 58.2231 73.3347 58.5111 73.6227 58.7244C73.9107 58.9378 74.3107 59.0444 74.8227 59.0444ZM82.8135 53.0924C83.3895 52.1964 84.4028 51.7484 85.8535 51.7484V53.6524C85.6828 53.6204 85.5282 53.6044 85.3895 53.6044C84.6108 53.6044 84.0028 53.8338 83.5655 54.2924C83.1282 54.7404 82.9095 55.3911 82.9095 56.2444V60.3884H80.9095V51.8444H82.8135V53.0924ZM104.098 51.8444L100.946 60.3884H99.0261L96.8181 54.5004L94.5781 60.3884H92.6581L89.5221 51.8444H91.4101L93.6661 58.1484L96.0181 51.8444H97.6981L100.002 58.1804L102.322 51.8444H104.098ZM108.439 60.5004C107.575 60.5004 106.796 60.3138 106.103 59.9404C105.41 59.5671 104.866 59.0498 104.471 58.3884C104.087 57.7164 103.895 56.9591 103.895 56.1164C103.895 55.2738 104.087 54.5218 104.471 53.8604C104.866 53.1991 105.41 52.6818 106.103 52.3084C106.796 51.9351 107.575 51.7484 108.439 51.7484C109.314 51.7484 110.098 51.9351 110.791 52.3084C111.484 52.6818 112.023 53.1991 112.407 53.8604C112.802 54.5218 112.999 55.2738 112.999 56.1164C112.999 56.9591 112.802 57.7164 112.407 58.3884C112.023 59.0498 111.484 59.5671 110.791 59.9404C110.098 60.3138 109.314 60.5004 108.439 60.5004ZM108.439 58.7884C109.175 58.7884 109.783 58.5431 110.263 58.0524C110.743 57.5618 110.983 56.9164 110.983 56.1164C110.983 55.3164 110.743 54.6711 110.263 54.1804C109.783 53.6898 109.175 53.4444 108.439 53.4444C107.703 53.4444 107.095 53.6898 106.615 54.1804C106.146 54.6711 105.911 55.3164 105.911 56.1164C105.911 56.9164 106.146 57.5618 106.615 58.0524C107.095 58.5431 107.703 58.7884 108.439 58.7884ZM116.175 53.0924C116.751 52.1964 117.765 51.7484 119.215 51.7484V53.6524C119.045 53.6204 118.89 53.6044 118.751 53.6044C117.973 53.6044 117.365 53.8338 116.927 54.2924C116.49 54.7404 116.271 55.3911 116.271 56.2444V60.3884H114.271V51.8444H116.175V53.0924ZM128.562 48.5164V60.3884H126.642V59.2844C126.311 59.6898 125.901 59.9938 125.41 60.1964C124.93 60.3991 124.397 60.5004 123.81 60.5004C122.989 60.5004 122.247 60.3191 121.586 59.9564C120.935 59.5938 120.423 59.0818 120.05 58.4204C119.677 57.7484 119.49 56.9804 119.49 56.1164C119.49 55.2524 119.677 54.4898 120.05 53.8284C120.423 53.1671 120.935 52.6551 121.586 52.2924C122.247 51.9298 122.989 51.7484 123.81 51.7484C124.375 51.7484 124.893 51.8444 125.362 52.0364C125.831 52.2284 126.231 52.5164 126.562 52.9004V48.5164H128.562ZM124.05 58.7884C124.53 58.7884 124.962 58.6818 125.346 58.4684C125.73 58.2444 126.034 57.9298 126.258 57.5244C126.482 57.1191 126.594 56.6498 126.594 56.1164C126.594 55.5831 126.482 55.1138 126.258 54.7084C126.034 54.3031 125.73 53.9938 125.346 53.7804C124.962 53.5564 124.53 53.4444 124.05 53.4444C123.57 53.4444 123.138 53.5564 122.754 53.7804C122.37 53.9938 122.066 54.3031 121.842 54.7084C121.618 55.1138 121.506 55.5831 121.506 56.1164C121.506 56.6498 121.618 57.1191 121.842 57.5244C122.066 57.9298 122.37 58.2444 122.754 58.4684C123.138 58.6818 123.57 58.7884 124.05 58.7884ZM133.178 60.5004C132.485 60.5004 131.808 60.4098 131.146 60.2284C130.485 60.0471 129.957 59.8178 129.562 59.5404L130.33 58.0204C130.714 58.2764 131.173 58.4844 131.706 58.6444C132.25 58.7938 132.784 58.8684 133.306 58.8684C134.501 58.8684 135.098 58.5538 135.098 57.9244C135.098 57.6258 134.944 57.4178 134.634 57.3004C134.336 57.1831 133.85 57.0711 133.178 56.9644C132.474 56.8578 131.898 56.7351 131.45 56.5964C131.013 56.4578 130.629 56.2178 130.298 55.8764C129.978 55.5244 129.818 55.0391 129.818 54.4204C129.818 53.6098 130.154 52.9644 130.826 52.4844C131.509 51.9938 132.426 51.7484 133.578 51.7484C134.165 51.7484 134.752 51.8178 135.338 51.9564C135.925 52.0844 136.405 52.2604 136.778 52.4844L136.01 54.0044C135.285 53.5778 134.469 53.3644 133.562 53.3644C132.976 53.3644 132.528 53.4551 132.218 53.6364C131.92 53.8071 131.77 54.0364 131.77 54.3244C131.77 54.6444 131.93 54.8738 132.25 55.0124C132.581 55.1404 133.088 55.2631 133.77 55.3804C134.453 55.4871 135.013 55.6098 135.45 55.7484C135.888 55.8871 136.261 56.1218 136.57 56.4524C136.89 56.7831 137.05 57.2524 137.05 57.8604C137.05 58.6604 136.704 59.3004 136.01 59.7804C135.317 60.2604 134.373 60.5004 133.178 60.5004Z" fill="#585858"/>
<path d="M211.777 8.5V57.2768" stroke="#E0E0E0" stroke-width="1.21942"/>
<path d="M264.506 8.61157C264.506 7.78657 264.799 7.08057 265.386 6.49357C265.974 5.90557 266.681 5.61157 267.506 5.61157L279.506 5.61157C280.331 5.61157 281.037 5.90557 281.624 6.49357C282.212 7.08057 282.506 7.78657 282.506 8.61157L282.506 32.6116C282.506 33.4366 282.212 34.1431 281.624 34.7311C281.037 35.3181 280.331 35.6116 279.506 35.6116L267.506 35.6116C266.681 35.6116 265.974 35.3181 265.386 34.7311C264.799 34.1431 264.506 33.4366 264.506 32.6116L264.506 8.61157ZM269.006 14.6116C269.006 15.0366 269.15 15.3931 269.438 15.6811C269.725 15.9681 270.081 16.1116 270.506 16.1116L272.006 16.1116L272.006 17.6116C272.006 18.0366 272.15 18.3931 272.438 18.6811C272.725 18.9681 273.081 19.1116 273.506 19.1116C273.931 19.1116 274.287 18.9681 274.575 18.6811C274.862 18.3931 275.006 18.0366 275.006 17.6116L275.006 16.1116L276.506 16.1116C276.931 16.1116 277.287 15.9681 277.575 15.6811C277.862 15.3931 278.006 15.0366 278.006 14.6116C278.006 14.1866 277.862 13.8301 277.575 13.5421C277.287 13.2551 276.931 13.1116 276.506 13.1116L275.006 13.1116L275.006 11.6116C275.006 11.1866 274.862 10.8301 274.575 10.5421C274.287 10.2551 273.931 10.1116 273.506 10.1116C273.081 10.1116 272.725 10.2551 272.438 10.5421C272.15 10.8301 272.006 11.1866 272.006 11.6116L272.006 13.1116L270.506 13.1116C270.081 13.1116 269.725 13.2551 269.438 13.5421C269.15 13.8301 269.006 14.1866 269.006 14.6116ZM269.006 24.3616C269.006 24.9866 269.225 25.5176 269.663 25.9546C270.1 26.3926 270.631 26.6116 271.256 26.6116C271.881 26.6116 272.412 26.3926 272.849 25.9546C273.287 25.5176 273.506 24.9866 273.506 24.3616C273.506 23.7366 273.287 23.2056 272.849 22.7686C272.412 22.3306 271.881 22.1116 271.256 22.1116C270.631 22.1116 270.1 22.3306 269.663 22.7686C269.225 23.2056 269.006 23.7366 269.006 24.3616ZM273.506 28.8616C273.506 29.4866 273.725 30.0176 274.163 30.4546C274.6 30.8926 275.131 31.1116 275.756 31.1116C276.381 31.1116 276.912 30.8926 277.349 30.4546C277.787 30.0176 278.006 29.4866 278.006 28.8616C278.006 28.2366 277.787 27.7056 277.349 27.2686C276.912 26.8306 276.381 26.6116 275.756 26.6116C275.131 26.6116 274.6 26.8306 274.163 27.2686C273.725 27.7056 273.506 28.2366 273.506 28.8616Z" fill="#2B788B"/>
<path d="M307.194 30.3884C315.86 29.9084 322.58 29.3751 327.354 28.7884C326.9 30.1751 326.554 31.6418 326.314 33.1884C326.074 34.7351 325.954 36.1351 325.954 37.3884H297.354L297.314 36.5484C297.314 33.9351 298.074 31.6684 299.594 29.7484C301.14 27.8284 303.287 26.0551 306.034 24.4284C306.834 23.9484 308.087 23.3351 309.794 22.5884C312.007 21.6284 313.714 20.7884 314.914 20.0684C316.114 19.3218 316.714 18.5884 316.714 17.8684C316.714 16.9618 316.34 16.2418 315.594 15.7084C314.847 15.1751 313.687 14.9084 312.114 14.9084C310.38 14.9084 309.06 15.3484 308.154 16.2284C307.274 17.1084 306.834 18.2284 306.834 19.5884C306.834 20.0151 306.874 20.4551 306.954 20.9084C303.594 20.4818 300.327 20.1884 297.154 20.0284C297.154 17.7618 297.74 15.7218 298.914 13.9084C300.114 12.0684 301.9 10.6151 304.274 9.54843C306.674 8.48176 309.607 7.94843 313.074 7.94843C316.247 7.94843 318.887 8.38843 320.994 9.26843C323.127 10.1218 324.687 11.2151 325.674 12.5484C326.687 13.8551 327.194 15.2018 327.194 16.5884C327.194 18.1884 326.834 19.5618 326.114 20.7084C325.42 21.8551 324.407 22.8818 323.074 23.7884C321.767 24.6684 320.007 25.6284 317.794 26.6684C317.474 26.8284 316.954 27.0151 316.234 27.2284C315.514 27.4151 315.06 27.5351 314.874 27.5884C312.98 28.1484 311.474 28.6151 310.354 28.9884C309.234 29.3618 308.18 29.8284 307.194 30.3884Z" fill="black"/>
<path d="M343.512 19.8684H350.632V27.6684H343.512V34.8284H335.712V27.6684H328.552V19.8684H335.712V12.7084H343.512V19.8684Z" fill="#2B788B"/>
<path d="M272.346 60.3884L272.33 52.9644L268.65 59.1084H267.722L264.042 53.0604V60.3884H262.058V49.1884H263.77L268.218 56.6124L272.586 49.1884H274.298L274.314 60.3884H272.346ZM276.507 51.8444H278.507V60.3884H276.507V51.8444ZM277.515 50.4364C277.152 50.4364 276.848 50.3244 276.603 50.1004C276.357 49.8658 276.235 49.5778 276.235 49.2364C276.235 48.8951 276.357 48.6124 276.603 48.3884C276.848 48.1538 277.152 48.0364 277.515 48.0364C277.877 48.0364 278.181 48.1484 278.427 48.3724C278.672 48.5858 278.795 48.8578 278.795 49.1884C278.795 49.5404 278.672 49.8391 278.427 50.0844C278.192 50.3191 277.888 50.4364 277.515 50.4364ZM285.34 51.7484C286.417 51.7484 287.281 52.0631 287.932 52.6924C288.582 53.3218 288.908 54.2551 288.908 55.4924V60.3884H286.908V55.7484C286.908 55.0018 286.732 54.4418 286.38 54.0684C286.028 53.6844 285.526 53.4924 284.876 53.4924C284.14 53.4924 283.558 53.7164 283.132 54.1644C282.705 54.6018 282.492 55.2364 282.492 56.0684V60.3884H280.492V51.8444H282.396V52.9484C282.726 52.5538 283.142 52.2551 283.644 52.0524C284.145 51.8498 284.71 51.7484 285.34 51.7484ZM290.805 51.8444H292.805V60.3884H290.805V51.8444ZM291.813 50.4364C291.45 50.4364 291.146 50.3244 290.901 50.1004C290.656 49.8658 290.533 49.5778 290.533 49.2364C290.533 48.8951 290.656 48.6124 290.901 48.3884C291.146 48.1538 291.45 48.0364 291.813 48.0364C292.176 48.0364 292.48 48.1484 292.725 48.3724C292.97 48.5858 293.093 48.8578 293.093 49.1884C293.093 49.5404 292.97 49.8391 292.725 50.0844C292.49 50.3191 292.186 50.4364 291.813 50.4364ZM294.358 55.1084H298.758V56.7724H294.358V55.1084ZM308.942 51.8444V59.0924C308.942 62.1004 307.406 63.6044 304.334 63.6044C303.513 63.6044 302.734 63.4978 301.998 63.2844C301.262 63.0818 300.654 62.7831 300.174 62.3884L301.07 60.8844C301.444 61.1938 301.913 61.4391 302.478 61.6204C303.054 61.8124 303.636 61.9084 304.222 61.9084C305.161 61.9084 305.849 61.6951 306.286 61.2684C306.724 60.8418 306.942 60.1911 306.942 59.3164V58.8684C306.601 59.2418 306.185 59.5244 305.694 59.7164C305.204 59.9084 304.665 60.0044 304.078 60.0044C303.268 60.0044 302.532 59.8338 301.87 59.4924C301.22 59.1404 300.702 58.6498 300.318 58.0204C299.945 57.3911 299.758 56.6711 299.758 55.8604C299.758 55.0498 299.945 54.3351 300.318 53.7164C300.702 53.0871 301.22 52.6018 301.87 52.2604C302.532 51.9191 303.268 51.7484 304.078 51.7484C304.697 51.7484 305.257 51.8498 305.758 52.0524C306.27 52.2551 306.697 52.5644 307.038 52.9804V51.8444H308.942ZM304.382 58.3084C305.14 58.3084 305.758 58.0844 306.238 57.6364C306.729 57.1778 306.974 56.5858 306.974 55.8604C306.974 55.1458 306.729 54.5644 306.238 54.1164C305.758 53.6684 305.14 53.4444 304.382 53.4444C303.614 53.4444 302.985 53.6684 302.494 54.1164C302.014 54.5644 301.774 55.1458 301.774 55.8604C301.774 56.5858 302.014 57.1778 302.494 57.6364C302.985 58.0844 303.614 58.3084 304.382 58.3084ZM314.196 51.7484C315.454 51.7484 316.414 52.0524 317.076 52.6604C317.748 53.2578 318.084 54.1644 318.084 55.3804V60.3884H316.196V59.3484C315.95 59.7218 315.598 60.0098 315.14 60.2124C314.692 60.4044 314.148 60.5004 313.508 60.5004C312.868 60.5004 312.308 60.3938 311.828 60.1804C311.348 59.9564 310.974 59.6524 310.708 59.2684C310.452 58.8738 310.324 58.4311 310.324 57.9404C310.324 57.1724 310.606 56.5591 311.172 56.1004C311.748 55.6311 312.649 55.3964 313.876 55.3964H316.084V55.2684C316.084 54.6711 315.902 54.2124 315.54 53.8924C315.188 53.5724 314.66 53.4124 313.956 53.4124C313.476 53.4124 313.001 53.4871 312.532 53.6364C312.073 53.7858 311.684 53.9938 311.364 54.2604L310.58 52.8044C311.028 52.4631 311.566 52.2018 312.196 52.0204C312.825 51.8391 313.492 51.7484 314.196 51.7484ZM313.924 59.0444C314.425 59.0444 314.868 58.9324 315.252 58.7084C315.646 58.4738 315.924 58.1431 316.084 57.7164V56.7244H314.02C312.868 56.7244 312.292 57.1031 312.292 57.8604C312.292 58.2231 312.436 58.5111 312.724 58.7244C313.012 58.9378 313.412 59.0444 313.924 59.0444ZM330.795 51.7484C331.872 51.7484 332.725 52.0631 333.355 52.6924C333.984 53.3111 334.299 54.2444 334.299 55.4924V60.3884H332.299V55.7484C332.299 55.0018 332.133 54.4418 331.803 54.0684C331.472 53.6844 330.997 53.4924 330.379 53.4924C329.707 53.4924 329.168 53.7164 328.763 54.1644C328.357 54.6018 328.155 55.2311 328.155 56.0524V60.3884H326.155V55.7484C326.155 55.0018 325.989 54.4418 325.659 54.0684C325.328 53.6844 324.853 53.4924 324.235 53.4924C323.552 53.4924 323.008 53.7111 322.603 54.1484C322.208 54.5858 322.011 55.2204 322.011 56.0524V60.3884H320.011V51.8444H321.915V52.9324C322.235 52.5484 322.635 52.2551 323.115 52.0524C323.595 51.8498 324.128 51.7484 324.715 51.7484C325.355 51.7484 325.92 51.8711 326.411 52.1164C326.912 52.3511 327.307 52.7031 327.595 53.1724C327.947 52.7244 328.4 52.3778 328.955 52.1324C329.509 51.8764 330.123 51.7484 330.795 51.7484ZM344.324 56.1644C344.324 56.3031 344.314 56.5004 344.292 56.7564H337.588C337.706 57.3858 338.01 57.8871 338.5 58.2604C339.002 58.6231 339.62 58.8044 340.356 58.8044C341.295 58.8044 342.068 58.4951 342.676 57.8764L343.748 59.1084C343.364 59.5671 342.879 59.9138 342.292 60.1484C341.706 60.3831 341.044 60.5004 340.308 60.5004C339.37 60.5004 338.543 60.3138 337.828 59.9404C337.114 59.5671 336.559 59.0498 336.164 58.3884C335.78 57.7164 335.588 56.9591 335.588 56.1164C335.588 55.2844 335.775 54.5378 336.148 53.8764C336.532 53.2044 337.06 52.6818 337.732 52.3084C338.404 51.9351 339.162 51.7484 340.004 51.7484C340.836 51.7484 341.578 51.9351 342.228 52.3084C342.89 52.6711 343.402 53.1884 343.764 53.8604C344.138 54.5218 344.324 55.2898 344.324 56.1644ZM340.004 53.3484C339.364 53.3484 338.82 53.5404 338.372 53.9244C337.935 54.2978 337.668 54.7991 337.572 55.4284H342.42C342.335 54.8098 342.074 54.3084 341.636 53.9244C341.199 53.5404 340.655 53.3484 340.004 53.3484ZM348.246 60.5004C347.552 60.5004 346.875 60.4098 346.214 60.2284C345.552 60.0471 345.024 59.8178 344.63 59.5404L345.398 58.0204C345.782 58.2764 346.24 58.4844 346.774 58.6444C347.318 58.7938 347.851 58.8684 348.374 58.8684C349.568 58.8684 350.166 58.5538 350.166 57.9244C350.166 57.6258 350.011 57.4178 349.702 57.3004C349.403 57.1831 348.918 57.0711 348.246 56.9644C347.542 56.8578 346.966 56.7351 346.518 56.5964C346.08 56.4578 345.696 56.2178 345.366 55.8764C345.046 55.5244 344.886 55.0391 344.886 54.4204C344.886 53.6098 345.222 52.9644 345.894 52.4844C346.576 51.9938 347.494 51.7484 348.646 51.7484C349.232 51.7484 349.819 51.8178 350.406 51.9564C350.992 52.0844 351.472 52.2604 351.846 52.4844L351.078 54.0044C350.352 53.5778 349.536 53.3644 348.63 53.3644C348.043 53.3644 347.595 53.4551 347.286 53.6364C346.987 53.8071 346.838 54.0364 346.838 54.3244C346.838 54.6444 346.998 54.8738 347.318 55.0124C347.648 55.1404 348.155 55.2631 348.838 55.3804C349.52 55.4871 350.08 55.6098 350.518 55.7484C350.955 55.8871 351.328 56.1218 351.638 56.4524C351.958 56.7831 352.118 57.2524 352.118 57.8604C352.118 58.6604 351.771 59.3004 351.078 59.7804C350.384 60.2604 349.44 60.5004 348.246 60.5004Z" fill="#585858"/>
</svg>
